<svg width="16" height="17" viewBox="0 0 16 17" fill="none" xmlns="http://www.w3.org/2000/svg">
<path fill-rule="evenodd" clip-rule="evenodd" d="M11.0092 14.8334H5.44398C3.39974 14.8334 1.83148 14.095 2.27694 11.1232L2.79562 7.09575C3.07022 5.61292 4.01607 5.04541 4.84597 5.04541H11.6316C12.4737 5.04541 13.3647 5.65563 13.682 7.09575L14.2007 11.1232C14.579 13.7594 13.0534 14.8334 11.0092 14.8334Z" stroke="white" stroke-width="1.5" stroke-linecap="round" stroke-linejoin="round"/>
<path d="M11.1007 4.89882C11.1007 3.30811 9.81117 2.01858 8.22045 2.01858V2.01858C7.45445 2.01533 6.71871 2.31735 6.17592 2.85786C5.63312 3.39836 5.328 4.13282 5.328 4.89882H5.328" stroke="white" stroke-width="1.5" stroke-linecap="round" stroke-linejoin="round"/>
<path d="M10.1976 7.9013H10.1671" stroke="white" stroke-width="1.5" stroke-linecap="round" stroke-linejoin="round"/>
<path d="M6.31048 7.9013H6.27997" stroke="white" stroke-width="1.5" stroke-linecap="round" stroke-linejoin="round"/>
</svg>
