<svg width="16" height="16" viewBox="0 0 16 16" fill="none" xmlns="http://www.w3.org/2000/svg">
<path fill-rule="evenodd" clip-rule="evenodd" d="M11.0091 14.3334H5.44386C3.39962 14.3334 1.83135 13.595 2.27681 10.6232L2.7955 6.59575C3.0701 5.11292 4.01595 4.54541 4.84585 4.54541H11.6315C12.4736 4.54541 13.3645 5.15563 13.6818 6.59575L14.2005 10.6232C14.5789 13.2594 13.0533 14.3334 11.0091 14.3334Z" stroke="#061b34" stroke-width="1.5" stroke-linecap="round" stroke-linejoin="round"/>
<path d="M11.1006 4.39882C11.1006 2.80811 9.81104 1.51858 8.22033 1.51858V1.51858C7.45433 1.51533 6.71859 1.81735 6.1758 2.35786C5.633 2.89836 5.32787 3.63282 5.32788 4.39882H5.32788" stroke="#061b34" stroke-width="1.5" stroke-linecap="round" stroke-linejoin="round"/>
<path d="M10.1976 7.4013H10.1671" stroke="#061b34" stroke-width="1.5" stroke-linecap="round" stroke-linejoin="round"/>
<path d="M6.31036 7.4013H6.27985" stroke="#061b34" stroke-width="1.5" stroke-linecap="round" stroke-linejoin="round"/>
</svg>
