<svg width="24" height="24" viewBox="0 0 24 24" fill="none" xmlns="http://www.w3.org/2000/svg">
<path d="M14.4183 5.48988C13.9423 5.40194 13.5051 5.70573 13.4144 6.17041C13.3238 6.63509 13.6285 7.08878 14.0916 7.17972C15.4859 7.45153 16.5625 8.53079 16.8353 9.92983V9.93083C16.913 10.3336 17.2676 10.6264 17.6759 10.6264C17.7307 10.6264 17.7854 10.6214 17.8412 10.6114C18.3043 10.5184 18.609 10.0657 18.5184 9.60006C18.1111 7.51049 16.5027 5.8966 14.4183 5.48988Z" fill="#143650"/>
<path d="M14.3561 2.00793C14.133 1.97595 13.9089 2.04191 13.7306 2.18381C13.5474 2.32771 13.4329 2.53557 13.408 2.76841C13.3552 3.23908 13.6948 3.66479 14.1649 3.71776C17.4065 4.07951 19.9261 6.60477 20.2906 9.85654C20.3394 10.2922 20.7049 10.621 21.1411 10.621C21.174 10.621 21.2059 10.619 21.2387 10.615C21.4668 10.59 21.67 10.4771 21.8134 10.2972C21.9558 10.1174 22.0205 9.89351 21.9946 9.66467C21.5405 5.60746 18.4004 2.45862 14.3561 2.00793Z" fill="#143650"/>
<path fill-rule="evenodd" clip-rule="evenodd" d="M11.0318 12.9724C16.0208 17.9604 15.9258 12.3467 18.4657 14.8848C20.9143 17.3328 22.3216 17.8232 19.2192 20.9247C18.4657 21.6781 16.5001 25.5 7.68462 16.3197C-0.999988 7 2.00012 5.85787 3.07399 4.78395C6.18388 1.67385 6.66588 3.08938 9.11451 5.53733C11.6544 8.0765 6.04268 7.98441 11.0318 12.9724Z" fill="#143650"/>
</svg>
