<svg width="18" height="18" viewBox="0 0 18 18" fill="none" xmlns="http://www.w3.org/2000/svg">
<g id="Iconly/Light/Delete">
<g id="Delete">
<path id="Stroke 1" d="M14.4933 7.10107C14.4933 7.10107 14.0861 12.1523 13.8498 14.2801C13.7373 15.2963 13.1096 15.8918 12.0813 15.9106C10.1246 15.9458 8.1656 15.9481 6.2096 15.9068C5.22035 15.8866 4.6031 15.2836 4.49285 14.2853C4.2551 12.1388 3.8501 7.10107 3.8501 7.10107" stroke="white" stroke-width="1.5" stroke-linecap="round" stroke-linejoin="round"/>
<path id="Stroke 3" d="M15.531 4.67969H2.8125" stroke="white" stroke-width="1.5" stroke-linecap="round" stroke-linejoin="round"/>
<path id="Stroke 5" d="M13.0804 4.67974C12.4917 4.67974 11.9847 4.26349 11.8692 3.68674L11.6869 2.77474C11.5744 2.35399 11.1934 2.06299 10.7592 2.06299H7.58443C7.15018 2.06299 6.76918 2.35399 6.65668 2.77474L6.47443 3.68674C6.35893 4.26349 5.85193 4.67974 5.26318 4.67974" stroke="white" stroke-width="1.5" stroke-linecap="round" stroke-linejoin="round"/>
</g>
</g>
</svg>
