<svg width="41" height="40" viewBox="0 0 41 40" fill="none" xmlns="http://www.w3.org/2000/svg">
<path opacity="0.1" fill-rule="evenodd" clip-rule="evenodd" d="M0.375 20C0.375 8.95431 9.32931 0 20.375 0C31.4207 0 40.375 8.95431 40.375 20C40.375 31.0457 31.4207 40 20.375 40C9.32931 40 0.375 31.0457 0.375 20Z" fill="white"/>
<g clip-path="url(#clip0_254_1597)">
<path d="M18.2226 22.6508L17.8918 27.3041C18.3651 27.3041 18.5701 27.1008 18.816 26.8566L21.0351 24.7358L25.6335 28.1033C26.4768 28.5733 27.071 28.3258 27.2985 27.3274L30.3168 13.1841L30.3176 13.1833C30.5851 11.9366 29.8668 11.4491 29.0451 11.7549L11.3035 18.5474C10.0926 19.0174 10.111 19.6924 11.0976 19.9983L15.6335 21.4091L26.1693 14.8166C26.6651 14.4883 27.116 14.6699 26.7451 14.9983L18.2226 22.6508Z" fill="white"/>
</g>
<defs>
<clipPath id="clip0_254_1597">
<rect width="20" height="20" fill="white" transform="translate(10.375 10)"/>
</clipPath>
</defs>
</svg>
