<svg width="20" height="20" viewBox="0 0 20 20" fill="none" xmlns="http://www.w3.org/2000/svg">
<path fill-rule="evenodd" clip-rule="evenodd" d="M13.2082 2.08412C13.734 2.08412 14.259 2.15828 14.7582 2.32578C17.834 3.32578 18.9423 6.70078 18.0165 9.65078C17.4915 11.1583 16.6332 12.5341 15.509 13.6583C13.8999 15.2166 12.134 16.5999 10.2332 17.7916L10.0249 17.9174L9.80818 17.7833C7.90068 16.5999 6.12485 15.2166 4.50068 13.65C3.38402 12.5258 2.52485 11.1583 1.99152 9.65078C1.04985 6.70078 2.15818 3.32578 5.26735 2.30828C5.50902 2.22495 5.75818 2.16662 6.00818 2.13412H6.10818C6.34235 2.09995 6.57485 2.08412 6.80818 2.08412H6.89985C7.42485 2.09995 7.93318 2.19162 8.42568 2.35912H8.47485C8.50818 2.37495 8.53318 2.39245 8.54985 2.40828C8.73402 2.46745 8.90818 2.53412 9.07485 2.62578L9.39152 2.76745C9.46804 2.80826 9.55392 2.87062 9.62815 2.92451C9.67518 2.95866 9.71753 2.9894 9.74985 3.00912C9.76345 3.01714 9.77727 3.02521 9.7912 3.03334C9.86265 3.07505 9.93709 3.1185 9.99985 3.16662C10.9257 2.45912 12.0499 2.07578 13.2082 2.08412ZM15.4248 8.08412C15.7665 8.07495 16.0582 7.80078 16.0832 7.44995V7.35078C16.1082 6.18328 15.4007 5.12578 14.3248 4.71745C13.9832 4.59995 13.6082 4.78412 13.4832 5.13412C13.3665 5.48412 13.5498 5.86745 13.8998 5.99162C14.434 6.19162 14.7915 6.71745 14.7915 7.29995V7.32578C14.7757 7.51662 14.8332 7.70078 14.9498 7.84245C15.0665 7.98412 15.2415 8.06662 15.4248 8.08412Z" fill="#FF6B03"/>
</svg>
