<svg width="225" height="67" viewBox="0 0 225 67" fill="none" xmlns="http://www.w3.org/2000/svg">
<path d="M12.4871 36.6974H5.14838L3.74838 40.088H0L7.04515 24.2649H10.658L17.7258 40.088H13.8871L12.4871 36.6974ZM11.3355 33.917L8.82901 27.859L6.32257 33.917H11.3355Z" fill="white"/>
<path d="M27.5624 24.2649C28.9624 24.2649 30.1743 24.4985 31.1979 24.9656C32.2366 25.4328 33.0345 26.0959 33.5915 26.9548C34.1484 27.8138 34.4269 28.831 34.4269 30.0064C34.4269 31.1668 34.1484 32.184 33.5915 33.058C33.0345 33.917 32.2366 34.5801 31.1979 35.0472C30.1743 35.4993 28.9624 35.7254 27.5624 35.7254H24.3786V40.088H20.7205V24.2649H27.5624ZM27.3592 32.7416C28.4581 32.7416 29.2936 32.508 29.8657 32.0408C30.4377 31.5586 30.7237 30.8805 30.7237 30.0064C30.7237 29.1173 30.4377 28.4392 29.8657 27.972C29.2936 27.4898 28.4581 27.2487 27.3592 27.2487H24.3786V32.7416H27.3592Z" fill="white"/>
<path d="M46.2687 40.3593C44.6278 40.3593 43.1451 40.0051 41.8203 39.2969C40.5106 38.5886 39.4795 37.6166 38.7268 36.3809C37.9891 35.1301 37.6203 33.7286 37.6203 32.1765C37.6203 30.6243 37.9891 29.2304 38.7268 27.9946C39.4795 26.7439 40.5106 25.7643 41.8203 25.0561C43.1451 24.3478 44.6278 23.9937 46.2687 23.9937C47.9096 23.9937 49.3848 24.3478 50.6945 25.0561C52.0042 25.7643 53.0354 26.7439 53.788 27.9946C54.5407 29.2304 54.9171 30.6243 54.9171 32.1765C54.9171 33.7286 54.5407 35.1301 53.788 36.3809C53.0354 37.6166 52.0042 38.5886 50.6945 39.2969C49.3848 40.0051 47.9096 40.3593 46.2687 40.3593ZM46.2687 37.2399C47.202 37.2399 48.045 37.0289 48.7977 36.6069C49.5504 36.1699 50.1375 35.5671 50.559 34.7986C50.9956 34.03 51.2139 33.156 51.2139 32.1765C51.2139 31.1969 50.9956 30.3229 50.559 29.5543C50.1375 28.7858 49.5504 28.1905 48.7977 27.7686C48.045 27.3316 47.202 27.1131 46.2687 27.1131C45.3354 27.1131 44.4924 27.3316 43.7397 27.7686C42.987 28.1905 42.3924 28.7858 41.9558 29.5543C41.5343 30.3229 41.3236 31.1969 41.3236 32.1765C41.3236 33.156 41.5343 34.03 41.9558 34.7986C42.3924 35.5671 42.987 36.1699 43.7397 36.6069C44.4924 37.0289 45.3354 37.2399 46.2687 37.2399Z" fill="white"/>
<path d="M62.0748 27.2487H57.0167V24.2649H70.7909V27.2487H65.7328V40.088H62.0748V27.2487Z" fill="white"/>
<path d="M88.6107 24.2649V40.088H84.9526V33.6005H77.772V40.088H74.1139V24.2649H77.772V30.5037H84.9526V24.2649H88.6107Z" fill="white"/>
<path d="M105.944 37.1494V40.088H93.7052V24.2649H105.65V27.2035H97.3407V30.6394H104.679V33.4875H97.3407V37.1494H105.944Z" fill="white"/>
<path d="M117.73 40.3593C116.119 40.3593 114.659 40.0127 113.349 39.3195C112.055 38.6112 111.031 37.6392 110.278 36.4035C109.541 35.1527 109.172 33.7437 109.172 32.1765C109.172 30.6092 109.541 29.2077 110.278 27.972C111.031 26.7213 112.055 25.7493 113.349 25.0561C114.659 24.3478 116.127 23.9937 117.752 23.9937C119.122 23.9937 120.357 24.2348 121.456 24.717C122.57 25.1992 123.503 25.8924 124.256 26.7966L121.907 28.9666C120.838 27.7309 119.514 27.1131 117.933 27.1131C116.954 27.1131 116.081 27.3316 115.314 27.7686C114.546 28.1905 113.944 28.7858 113.507 29.5543C113.086 30.3229 112.875 31.1969 112.875 32.1765C112.875 33.156 113.086 34.03 113.507 34.7986C113.944 35.5671 114.546 36.1699 115.314 36.6069C116.081 37.0289 116.954 37.2399 117.933 37.2399C119.514 37.2399 120.838 36.6145 121.907 35.3637L124.256 37.5337C123.503 38.453 122.57 39.1537 121.456 39.6359C120.342 40.1182 119.1 40.3593 117.73 40.3593Z" fill="white"/>
<path d="M138.182 36.6974H130.843L129.443 40.088H125.695L132.74 24.2649H136.353L143.42 40.088H139.582L138.182 36.6974ZM137.03 33.917L134.524 27.859L132.017 33.917H137.03Z" fill="white"/>
<path d="M181.002 4.77605C183.628 4.77605 185.759 6.90973 185.759 9.53797V20.6162H196.783C199.409 20.6162 201.54 22.7498 201.54 25.3781V40.7519C201.54 43.3801 199.409 45.5138 196.783 45.5138H185.759V56.5496C185.759 59.1778 183.628 61.3115 181.002 61.3115H174.862C179.859 64.3495 185.717 66.1017 191.984 66.1017C210.221 66.1017 225 51.3072 225 33.0508C225 14.7945 210.221 0 191.984 0C185.717 0 179.845 1.75216 174.862 4.79018H181.002V4.77605Z" fill="white"/>
<path d="M159.109 23.8521H166.971C169.766 23.8521 172.053 26.1412 172.053 28.939V36.8096C172.053 39.6074 169.766 41.8965 166.971 41.8965H159.109C156.314 41.8965 154.028 39.6074 154.028 36.8096V28.939C154.028 26.1412 156.314 23.8521 159.109 23.8521Z" fill="white"/>
</svg>
