<svg width="48" height="48" viewBox="0 0 48 48" fill="none" xmlns="http://www.w3.org/2000/svg">
<rect width="48" height="48" rx="16" fill="white"/>
<path d="M26.4183 17.4899C25.9423 17.4019 25.5051 17.7057 25.4144 18.1704C25.3238 18.6351 25.6285 19.0888 26.0916 19.1797C27.4859 19.4515 28.5625 20.5308 28.8353 21.9298V21.9308C28.913 22.3336 29.2676 22.6264 29.6759 22.6264C29.7307 22.6264 29.7854 22.6214 29.8412 22.6114C30.3043 22.5184 30.609 22.0657 30.5184 21.6001C30.1111 19.5105 28.5027 17.8966 26.4183 17.4899Z" fill="#143650"/>
<path d="M26.3561 14.0079C26.133 13.976 25.9089 14.0419 25.7306 14.1838C25.5474 14.3277 25.4329 14.5356 25.408 14.7684C25.3552 15.2391 25.6948 15.6648 26.1649 15.7178C29.4065 16.0795 31.9261 18.6048 32.2906 21.8565C32.3394 22.2922 32.7049 22.621 33.1411 22.621C33.174 22.621 33.2059 22.619 33.2387 22.615C33.4668 22.59 33.67 22.4771 33.8134 22.2972C33.9558 22.1174 34.0205 21.8935 33.9946 21.6647C33.5405 17.6075 30.4004 14.4586 26.3561 14.0079Z" fill="#143650"/>
<path fill-rule="evenodd" clip-rule="evenodd" d="M23.0318 24.9724C28.0208 29.9604 27.9258 24.3467 30.4657 26.8848C32.9143 29.3328 34.3216 29.8232 31.2192 32.9247C30.4657 33.6781 28.5001 37.5 19.6846 28.3197C11 19 14.0001 17.8579 15.074 16.7839C18.1839 13.6738 18.6659 15.0894 21.1145 17.5373C23.6544 20.0765 18.0427 19.9844 23.0318 24.9724Z" fill="#143650"/>
</svg>
