<svg width="48" height="48" viewBox="0 0 48 48" fill="none" xmlns="http://www.w3.org/2000/svg">
<rect width="48" height="48" rx="16" fill="white"/>
<path fill-rule="evenodd" clip-rule="evenodd" d="M15.5 22.3178C15.5 17.7179 19.3439 14 23.9934 14C28.6561 14 32.5 17.7179 32.5 22.3178C32.5 24.6357 31.657 26.7876 30.2695 28.6116C28.7388 30.6235 26.8522 32.3765 24.7285 33.7524C24.2425 34.0704 23.8039 34.0944 23.2704 33.7524C21.1347 32.3765 19.2481 30.6235 17.7305 28.6116C16.342 26.7876 15.5 24.6357 15.5 22.3178ZM21.1942 22.5768C21.1942 24.1177 22.4517 25.3297 23.9934 25.3297C25.5362 25.3297 26.8058 24.1177 26.8058 22.5768C26.8058 21.0478 25.5362 19.7768 23.9934 19.7768C22.4517 19.7768 21.1942 21.0478 21.1942 22.5768Z" fill="#143650"/>
</svg>
