<svg width="48" height="48" viewBox="0 0 48 48" fill="none" xmlns="http://www.w3.org/2000/svg">
<rect width="48" height="48" rx="16" fill="white"/>
<path fill-rule="evenodd" clip-rule="evenodd" d="M24 34.0001C18.48 34.0001 14 29.5301 14 24.0001C14 18.4801 18.48 14.0001 24 14.0001C29.53 14.0001 34 18.4801 34 24.0001C34 29.5301 29.53 34.0001 24 34.0001ZM27.19 27.7101C27.31 27.7801 27.44 27.8201 27.58 27.8201C27.83 27.8201 28.08 27.6901 28.22 27.4501C28.43 27.1001 28.32 26.6401 27.96 26.4201L24.4 24.3001V19.6801C24.4 19.2601 24.06 18.9301 23.65 18.9301C23.24 18.9301 22.9 19.2601 22.9 19.6801V24.7301C22.9 24.9901 23.04 25.2301 23.27 25.3701L27.19 27.7101Z" fill="#143650"/>
</svg>
