<svg width="48" height="48" viewBox="0 0 48 48" fill="none" xmlns="http://www.w3.org/2000/svg">
<rect width="48" height="48" rx="16" fill="white"/>
<path fill-rule="evenodd" clip-rule="evenodd" d="M28.9394 15C30.2804 15 31.5704 15.53 32.5194 16.481C33.4694 17.43 34.0004 18.71 34.0004 20.05V27.95C34.0004 30.74 31.7304 33 28.9394 33H19.0604C16.2694 33 14.0004 30.74 14.0004 27.95V20.05C14.0004 17.26 16.2594 15 19.0604 15H28.9394ZM30.5304 21.54L30.6104 21.46C30.8494 21.17 30.8494 20.75 30.5994 20.46C30.4604 20.311 30.2694 20.22 30.0704 20.2C29.8604 20.189 29.6604 20.26 29.5094 20.4L25.0004 24C24.4204 24.481 23.5894 24.481 23.0004 24L18.5004 20.4C18.1894 20.17 17.7594 20.2 17.5004 20.47C17.2304 20.74 17.2004 21.17 17.4294 21.47L17.5604 21.6L22.1104 25.15C22.6704 25.59 23.3494 25.83 24.0604 25.83C24.7694 25.83 25.4604 25.59 26.0194 25.15L30.5304 21.54Z" fill="#143650"/>
</svg>
