<svg width="48" height="48" viewBox="0 0 48 48" fill="none" xmlns="http://www.w3.org/2000/svg">
<rect width="48" height="48" rx="16" fill="white"/>
<path d="M33.4354 14.582C32.9352 14.0686 32.1949 13.8773 31.5046 14.0787L15.408 18.7595C14.6797 18.9619 14.1635 19.5427 14.0244 20.2806C13.8824 21.0315 14.3786 21.9848 15.0268 22.3834L20.0599 25.4768C20.5761 25.7939 21.2424 25.7144 21.6696 25.2835L27.4329 19.4843C27.723 19.1823 28.2032 19.1823 28.4934 19.4843C28.7835 19.7762 28.7835 20.2493 28.4934 20.5513L22.72 26.3516C22.2918 26.7814 22.2118 27.4508 22.5269 27.9702L25.6022 33.0538C25.9623 33.6577 26.5826 34 27.2628 34C27.3429 34 27.4329 34 27.513 33.9899C28.2933 33.8893 28.9135 33.3558 29.1436 32.6008L33.9156 16.5248C34.1257 15.8403 33.9356 15.0954 33.4354 14.582Z" fill="#143650"/>
</svg>
