<svg width="71" height="71" viewBox="0 0 71 71" fill="none" xmlns="http://www.w3.org/2000/svg">
<path d="M39.7042 55.1467H14.0705V25.4951H39.7042V55.1467Z" fill="#FFC14F"/>
<path d="M19.3895 55.1467H14.0703V25.4951H19.3895V55.1467Z" fill="#FFA90B"/>
<path d="M38.1417 26.5254H15.633C14.77 26.5254 14.0705 25.8258 14.0705 24.9629V20.6812C14.0705 19.8182 14.77 19.1187 15.633 19.1187H38.1417C39.0047 19.1187 39.7042 19.8182 39.7042 20.6812V24.9629C39.7042 25.8258 39.0047 26.5254 38.1417 26.5254Z" fill="#A7D0FC"/>
<path d="M43.4609 26.5254H20.952C20.0891 26.5254 19.3895 25.8258 19.3895 24.9629V20.6812C19.3895 19.8182 20.0891 19.1187 20.952 19.1187H43.4609C44.3239 19.1187 45.0234 19.8182 45.0234 20.6812V24.9629C45.0234 25.8258 44.3239 26.5254 43.4609 26.5254Z" fill="#C8E2FD"/>
<path d="M38.1417 26.7246H12.9552C12.0922 26.7246 11.3927 26.0251 11.3927 25.1621C11.3927 24.2991 12.0922 23.5996 12.9552 23.5996H38.1417C39.0047 23.5996 39.7042 24.2991 39.7042 25.1621C39.7042 26.0251 39.0047 26.7246 38.1417 26.7246Z" fill="#C8E2FD"/>
<path d="M43.8092 26.7246H18.6225C17.7595 26.7246 17.06 26.0251 17.06 25.1621C17.06 24.2991 17.7595 23.5996 18.6225 23.5996H43.8091C44.672 23.5996 45.3716 24.2991 45.3716 25.1621C45.3717 26.0251 44.6722 26.7246 43.8092 26.7246Z" fill="#E9F3FE"/>
<path d="M70.5781 46.7188V62.5C70.5781 65.0887 68.4795 67.1875 65.8906 67.1875H39.3281C36.7392 67.1875 34.6406 65.0887 34.6406 62.5V19.0625C34.6406 16.4738 36.7392 14.375 39.3281 14.375H41.5156C42.81 14.375 43.8594 13.3256 43.8594 12.0312V4.6875H54.7969V42.0312H65.8906C68.4795 42.0312 70.5781 44.13 70.5781 46.7188Z" fill="#F44545"/>
<path d="M69.1719 22.822V40.625C69.1719 40.625 70.4498 45.6044 70.2091 46.5098C68.9572 51.2183 64.665 54.6875 59.5625 54.6875C53.4787 54.6875 48.5469 49.7556 48.5469 43.6719V4.6875H61.3594V12.0312C61.3594 13.3256 62.4087 14.375 63.7031 14.375H65.8906C68.4795 14.375 70.5781 16.4738 70.5781 19.0625V20.3125L69.1719 22.822Z" fill="#FB5858"/>
<path d="M59.7969 1.5625V9.375C59.7969 10.238 59.0973 10.9375 58.2344 10.9375H43.8594C42.9964 10.9375 42.2969 10.238 42.2969 9.375V1.5625C42.2969 0.699531 42.9964 0 43.8594 0H58.2344C59.0973 0 59.7969 0.699531 59.7969 1.5625Z" fill="#A7D0FC"/>
<path d="M62.9219 1.5625V9.375C62.9219 10.238 62.2223 10.9375 61.3594 10.9375H46.9844C46.1214 10.9375 45.4219 10.238 45.4219 9.375V1.5625C45.4219 0.699531 46.1214 0 46.9844 0H61.3594C62.2223 0 62.9219 0.699531 62.9219 1.5625Z" fill="#C8E2FD"/>
<path d="M51.8281 2.34375V8.59375C51.8281 9.02516 51.4783 9.375 51.0469 9.375C50.6155 9.375 50.2656 9.02516 50.2656 8.59375V2.34375C50.2656 1.91234 50.6155 1.5625 51.0469 1.5625C51.4783 1.5625 51.8281 1.91234 51.8281 2.34375ZM47.9219 1.5625C47.4905 1.5625 47.1406 1.91234 47.1406 2.34375V8.59375C47.1406 9.02516 47.4905 9.375 47.9219 9.375C48.3533 9.375 48.7031 9.02516 48.7031 8.59375V2.34375C48.7031 1.91234 48.3533 1.5625 47.9219 1.5625ZM44.7969 1.5625C44.3655 1.5625 44.0156 1.91234 44.0156 2.34375V8.59375C44.0156 9.02516 44.3655 9.375 44.7969 9.375C45.2283 9.375 45.5781 9.02516 45.5781 8.59375V2.34375C45.5781 1.91234 45.2283 1.5625 44.7969 1.5625ZM60.4219 1.5625C59.9905 1.5625 59.6406 1.91234 59.6406 2.34375V8.59375C59.6406 9.02516 59.9905 9.375 60.4219 9.375C60.8533 9.375 61.2031 9.02516 61.2031 8.59375V2.34375C61.2031 1.91234 60.8533 1.5625 60.4219 1.5625ZM57.2969 1.5625C56.8655 1.5625 56.5156 1.91234 56.5156 2.34375V8.59375C56.5156 9.02516 56.8655 9.375 57.2969 9.375C57.7283 9.375 58.0781 9.02516 58.0781 8.59375V2.34375C58.0781 1.91234 57.7283 1.5625 57.2969 1.5625ZM54.1719 1.5625C53.7405 1.5625 53.3906 1.91234 53.3906 2.34375V8.59375C53.3906 9.02516 53.7405 9.375 54.1719 9.375C54.6033 9.375 54.9531 9.02516 54.9531 8.59375V2.34375C54.9531 1.91234 54.6033 1.5625 54.1719 1.5625Z" fill="#86BEFB"/>
<path d="M69.1719 22.6562V44.5312C69.1719 45.8256 68.1225 46.875 66.8281 46.875H49.6406C48.3462 46.875 47.2969 45.8256 47.2969 44.5312V22.6562C47.2969 21.3619 48.3462 20.3125 49.6406 20.3125H66.8281C68.1225 20.3125 69.1719 21.3619 69.1719 22.6562Z" fill="#C8E2FD"/>
<path d="M70.5781 20.3125V46.875H54.7969C53.5025 46.875 52.4531 45.8256 52.4531 44.5312V22.6562C52.4531 21.3619 53.5025 20.3125 54.7969 20.3125H70.5781Z" fill="#E9F3FE"/>
<path d="M58.2344 36.875C58.2344 36.4436 58.5842 36.0938 59.0156 36.0938H65.2656C65.697 36.0938 66.0469 36.4436 66.0469 36.875C66.0469 37.3064 65.697 37.6562 65.2656 37.6562H59.0156C58.5842 37.6562 58.2344 37.3064 58.2344 36.875ZM65.2656 39.2188H59.0156C58.5842 39.2188 58.2344 39.5686 58.2344 40C58.2344 40.4314 58.5842 40.7812 59.0156 40.7812H65.2656C65.697 40.7812 66.0469 40.4314 66.0469 40C66.0469 39.5686 65.697 39.2188 65.2656 39.2188ZM65.2656 42.3438H59.0156C58.5842 42.3438 58.2344 42.6936 58.2344 43.125C58.2344 43.5564 58.5842 43.9062 59.0156 43.9062H65.2656C65.697 43.9062 66.0469 43.5564 66.0469 43.125C66.0469 42.6936 65.697 42.3438 65.2656 42.3438Z" fill="#A7D0FC"/>
<path d="M55.3305 37.8125V68.5938C55.3305 69.8881 54.2811 70.9375 52.9867 70.9375H2.98672C1.69234 70.9375 0.642965 69.8881 0.642965 68.5938V37.8125C0.642965 36.5181 1.69234 35.4688 2.98672 35.4688H52.9867C54.2811 35.4688 55.3305 36.5181 55.3305 37.8125Z" fill="#D9DBE1"/>
<path d="M55.3305 37.8125V68.5938C55.3305 69.8881 54.2811 70.9375 52.9867 70.9375H38.6898C28.8955 70.9375 20.9555 62.9977 20.9555 53.2031C20.9555 43.4086 28.8955 35.4688 38.6898 35.4688H52.9867C54.2811 35.4688 55.3305 36.5181 55.3305 37.8125Z" fill="#E8EAEE"/>
<path d="M50.4867 53.2031C50.4867 53.8503 49.962 54.375 49.3148 54.375H6.34609C5.69891 54.375 5.17422 53.8503 5.17422 53.2031C5.17422 52.5559 5.69891 52.0312 6.34609 52.0312H49.3148C49.962 52.0312 50.4867 52.5559 50.4867 53.2031ZM34.3409 48.4375C36.9298 48.4375 39.0284 46.3387 39.0284 43.75C39.0284 41.1612 36.9298 39.0625 34.3409 39.0625C31.752 39.0625 29.6534 41.1612 29.6534 43.75C29.6534 46.3387 31.752 48.4375 34.3409 48.4375ZM47.0492 48.4375C49.6381 48.4375 51.7367 46.3387 51.7367 43.75C51.7367 41.1612 49.6381 39.0625 47.0492 39.0625C44.4603 39.0625 42.3617 41.1612 42.3617 43.75C42.3617 46.3387 44.4603 48.4375 47.0492 48.4375ZM8.92422 48.4375C11.5131 48.4375 13.6117 46.3387 13.6117 43.75C13.6117 41.1612 11.5131 39.0625 8.92422 39.0625C6.33531 39.0625 4.23672 41.1612 4.23672 43.75C4.23672 46.3387 6.33531 48.4375 8.92422 48.4375ZM21.6325 48.4375C24.2214 48.4375 26.32 46.3387 26.32 43.75C26.32 41.1612 24.2214 39.0625 21.6325 39.0625C19.0436 39.0625 16.945 41.1612 16.945 43.75C16.945 46.3387 19.0437 48.4375 21.6325 48.4375ZM34.3409 57.8125C31.752 57.8125 29.6534 59.9112 29.6534 62.5C29.6534 65.0888 31.752 67.1875 34.3409 67.1875C36.9298 67.1875 39.0284 65.0888 39.0284 62.5C39.0284 59.9112 36.9297 57.8125 34.3409 57.8125ZM47.0492 57.8125C44.4603 57.8125 42.3617 59.9112 42.3617 62.5C42.3617 65.0888 44.4603 67.1875 47.0492 67.1875C49.6381 67.1875 51.7367 65.0888 51.7367 62.5C51.7367 59.9112 49.638 57.8125 47.0492 57.8125ZM8.92422 57.8125C6.33531 57.8125 4.23672 59.9112 4.23672 62.5C4.23672 65.0888 6.33531 67.1875 8.92422 67.1875C11.5131 67.1875 13.6117 65.0888 13.6117 62.5C13.6117 59.9112 11.513 57.8125 8.92422 57.8125ZM21.6325 57.8125C19.0436 57.8125 16.945 59.9112 16.945 62.5C16.945 65.0888 19.0436 67.1875 21.6325 67.1875C24.2214 67.1875 26.32 65.0888 26.32 62.5C26.32 59.9112 24.2214 57.8125 21.6325 57.8125Z" fill="#A3B7C8"/>
<path d="M62.9284 24.6811C64.1733 25.9259 63.5005 28.6168 61.4258 30.6915C59.3511 32.7662 56.6602 33.4389 55.4153 32.1942C54.1705 30.9493 54.8433 28.2584 56.918 26.1837C58.9927 24.109 61.6836 23.4364 62.9284 24.6811Z" fill="#FFA90B"/>
<path d="M62.9284 24.681C64.0126 25.7652 63.642 27.9463 62.1576 29.8619C60.927 30.7127 59.2195 30.5813 58.1391 29.5085C58.1327 29.5021 58.1262 29.4959 58.12 29.4894C58.1136 29.483 58.1073 29.4766 58.1009 29.4702C57.0281 28.3898 56.8967 26.6824 57.7473 25.4518C59.663 23.9674 61.8442 23.5969 62.9284 24.681Z" fill="#FFC14F"/>
<path d="M37.4659 43.75C37.4659 45.4759 36.0669 46.875 34.3409 46.875C32.615 46.875 31.2159 45.4759 31.2159 43.75C31.2159 42.0241 32.615 40.625 34.3409 40.625C36.0669 40.625 37.4659 42.0241 37.4659 43.75ZM47.0492 46.875C48.7752 46.875 50.1742 45.4759 50.1742 43.75C50.1742 42.0241 48.7752 40.625 47.0492 40.625C45.3233 40.625 43.9242 42.0241 43.9242 43.75C43.9242 45.4759 45.3233 46.875 47.0492 46.875ZM8.92422 40.625C7.19828 40.625 5.79922 42.0241 5.79922 43.75C5.79922 45.4759 7.19828 46.875 8.92422 46.875C10.6502 46.875 12.0492 45.4759 12.0492 43.75C12.0492 42.0241 10.6502 40.625 8.92422 40.625ZM21.6325 40.625C19.9066 40.625 18.5075 42.0241 18.5075 43.75C18.5075 45.4759 19.9066 46.875 21.6325 46.875C23.3584 46.875 24.7575 45.4759 24.7575 43.75C24.7575 42.0241 23.3584 40.625 21.6325 40.625ZM34.3409 59.375C32.615 59.375 31.2159 60.7741 31.2159 62.5C31.2159 64.2259 32.615 65.625 34.3409 65.625C36.0669 65.625 37.4659 64.2259 37.4659 62.5C37.4659 60.7741 36.0667 59.375 34.3409 59.375ZM47.0492 59.375C45.3233 59.375 43.9242 60.7741 43.9242 62.5C43.9242 64.2259 45.3233 65.625 47.0492 65.625C48.7752 65.625 50.1742 64.2259 50.1742 62.5C50.1742 60.7741 48.7752 59.375 47.0492 59.375ZM8.92422 59.375C7.19828 59.375 5.79922 60.7741 5.79922 62.5C5.79922 64.2259 7.19828 65.625 8.92422 65.625C10.6502 65.625 12.0492 64.2259 12.0492 62.5C12.0492 60.7741 10.6502 59.375 8.92422 59.375ZM21.6325 59.375C19.9066 59.375 18.5075 60.7741 18.5075 62.5C18.5075 64.2259 19.9066 65.625 21.6325 65.625C23.3584 65.625 24.7575 64.2259 24.7575 62.5C24.7575 60.7741 23.3584 59.375 21.6325 59.375Z" fill="#C8E2FD"/>
<path d="M37.4659 43.75C37.4659 44.1237 37.4003 44.482 37.28 44.8142C36.9478 44.9345 36.5895 45 36.2159 45C34.49 45 33.0909 43.6009 33.0909 41.875C33.0909 41.5013 33.1566 41.143 33.2769 40.8108C33.6091 40.6905 33.9673 40.625 34.3409 40.625C36.0667 40.625 37.4659 42.0241 37.4659 43.75ZM48.9242 45C49.2978 45 49.6562 44.9344 49.9883 44.8142C50.1086 44.482 50.1742 44.1237 50.1742 43.75C50.1742 42.0241 48.7752 40.625 47.0492 40.625C46.6756 40.625 46.3172 40.6906 45.9852 40.8108C45.8648 41.143 45.7992 41.5013 45.7992 41.875C45.7992 43.6009 47.1983 45 48.9242 45ZM8.92422 40.625C8.55063 40.625 8.19219 40.6906 7.86016 40.8108C7.73984 41.143 7.67422 41.5013 7.67422 41.875C7.67422 43.6009 9.07328 45 10.7992 45C11.1728 45 11.5312 44.9344 11.8633 44.8142C11.9836 44.482 12.0492 44.1237 12.0492 43.75C12.0492 42.0241 10.6502 40.625 8.92422 40.625ZM21.6325 40.625C21.2589 40.625 20.9005 40.6906 20.5684 40.8108C20.4481 41.143 20.3825 41.5013 20.3825 41.875C20.3825 43.6009 21.7816 45 23.5075 45C23.8811 45 24.2395 44.9344 24.5716 44.8142C24.6919 44.482 24.7575 44.1237 24.7575 43.75C24.7575 42.0241 23.3584 40.625 21.6325 40.625ZM34.3409 59.375C33.9673 59.375 33.6089 59.4406 33.2769 59.5608C33.1566 59.893 33.0909 60.2513 33.0909 60.625C33.0909 62.3509 34.49 63.75 36.2159 63.75C36.5895 63.75 36.948 63.6844 37.28 63.5642C37.4003 63.232 37.4659 62.8738 37.4659 62.5C37.4659 60.7741 36.0667 59.375 34.3409 59.375ZM47.0492 59.375C46.6756 59.375 46.3172 59.4406 45.9852 59.5608C45.8648 59.893 45.7992 60.2513 45.7992 60.625C45.7992 62.3509 47.1983 63.75 48.9242 63.75C49.2978 63.75 49.6562 63.6844 49.9883 63.5642C50.1086 63.232 50.1742 62.8738 50.1742 62.5C50.1742 60.7741 48.7752 59.375 47.0492 59.375ZM8.92422 59.375C8.55063 59.375 8.19219 59.4406 7.86016 59.5608C7.73984 59.893 7.67422 60.2513 7.67422 60.625C7.67422 62.3509 9.07328 63.75 10.7992 63.75C11.1728 63.75 11.5312 63.6844 11.8633 63.5642C11.9836 63.232 12.0492 62.8738 12.0492 62.5C12.0492 60.7741 10.6502 59.375 8.92422 59.375ZM21.6325 59.375C21.2589 59.375 20.9005 59.4406 20.5684 59.5608C20.4481 59.893 20.3825 60.2513 20.3825 60.625C20.3825 62.3509 21.7816 63.75 23.5075 63.75C23.8811 63.75 24.2395 63.6844 24.5716 63.5642C24.6919 63.232 24.7575 62.8738 24.7575 62.5C24.7575 60.7741 23.3584 59.375 21.6325 59.375Z" fill="#E9F3FE"/>
</svg>
