<svg width="80" height="80" viewBox="0 0 80 80" fill="none" xmlns="http://www.w3.org/2000/svg">
<path d="M18.3494 34.7298H6.42705C5.44071 34.7298 4.64124 33.9304 4.64124 32.944C4.64124 31.9577 5.44071 31.1582 6.42705 31.1582H18.349C19.3354 31.1582 20.1349 31.9577 20.1349 32.944C20.1352 33.93 19.3354 34.7298 18.3494 34.7298Z" fill="#FB5858"/>
<path d="M19.1475 41.3099H4.1411C3.15476 41.3099 2.35529 40.5104 2.35529 39.5241C2.35529 38.5378 3.15476 37.7383 4.1411 37.7383H19.1475C20.1338 37.7383 20.9333 38.5378 20.9333 39.5241C20.9333 40.5101 20.1335 41.3099 19.1475 41.3099Z" fill="#FB5858"/>
<path d="M20.6382 47.89H1.78581C0.799471 47.89 0 47.0905 0 46.1042C0 45.1178 0.799471 44.3184 1.78581 44.3184H20.6382C21.6245 44.3184 22.424 45.1178 22.424 46.1042C22.424 47.0902 21.6245 47.89 20.6382 47.89Z" fill="#FB5858"/>
<path d="M78.386 39.7646L65.8373 12.4809C65.3112 11.8163 64.5104 11.4287 63.6629 11.4287H57.3323H52.3407H12.963C11.7378 11.4287 10.7445 12.422 10.7445 13.6472V58.9075H52.341H57.3326H78.6854V40.6253C78.6854 40.3127 78.5798 40.0097 78.386 39.7646Z" fill="#FB5858"/>
<path d="M63.4402 15.5997C63.1902 15.2997 62.8197 15.126 62.4292 15.126H55.5119H50.699C49.9722 15.126 49.383 15.7152 49.383 16.442V39.2415C49.383 39.9682 49.9722 40.5575 50.699 40.5575H55.5119H61.2806H71.9014C73.0171 40.5575 73.6267 39.2563 72.9125 38.3992L63.4402 15.5997Z" fill="#E0EBFC"/>
<path d="M78.6855 50.4036H73.3462C72.6194 50.4036 72.0302 49.8143 72.0302 49.0876V46.2657C72.0302 45.5389 72.6194 44.9497 73.3462 44.9497H78.6855V50.4036Z" fill="#304B68"/>
<path d="M79.1473 61.9797H10.652C10.1924 61.9797 9.82001 61.6073 9.82001 61.1477V56.8032C9.82001 56.3436 10.1924 55.9712 10.652 55.9712H79.1473C79.6069 55.9712 79.9794 56.3436 79.9794 56.8032V61.1477C79.9794 61.6073 79.6069 61.9797 79.1473 61.9797Z" fill="#E0EBFC"/>
<path d="M25.3603 69.5413C30.2766 69.5413 34.2621 65.5559 34.2621 60.6396C34.2621 55.7233 30.2766 51.7378 25.3603 51.7378C20.444 51.7378 16.4586 55.7233 16.4586 60.6396C16.4586 65.5559 20.444 69.5413 25.3603 69.5413Z" fill="#86BEFB"/>
<path d="M25.3604 65.1041C27.8263 65.1041 29.8252 63.1051 29.8252 60.6392C29.8252 58.1733 27.8263 56.1743 25.3604 56.1743C22.8945 56.1743 20.8955 58.1733 20.8955 60.6392C20.8955 63.1051 22.8945 65.1041 25.3604 65.1041Z" fill="#C8E2FD"/>
<path d="M63.8139 69.5413C68.7302 69.5413 72.7156 65.5559 72.7156 60.6396C72.7156 55.7233 68.7302 51.7378 63.8139 51.7378C58.8976 51.7378 54.9121 55.7233 54.9121 60.6396C54.9121 65.5559 58.8976 69.5413 63.8139 69.5413Z" fill="#86BEFB"/>
<path d="M63.8139 65.1037C61.352 65.1037 59.3494 63.1008 59.3494 60.6392C59.3494 58.1773 61.352 56.1743 63.8139 56.1743C66.2758 56.1743 68.2788 58.1773 68.2788 60.6392C68.2784 63.1008 66.2758 65.1037 63.8139 65.1037Z" fill="#C8E2FD"/>
<path d="M52.6454 36.8115C52.3927 36.8115 52.14 36.7151 51.9476 36.5224C51.562 36.1368 51.562 35.512 51.9476 35.1264L56.4845 30.5895C56.8698 30.2039 57.4949 30.2039 57.8801 30.5895C58.2657 30.9751 58.2657 31.5998 57.8801 31.9854L53.3432 36.5224C53.1507 36.7151 52.8981 36.8115 52.6454 36.8115Z" fill="#E0EBFC"/>
<path d="M57.6775 36.8115C57.4248 36.8115 57.1721 36.7151 56.9797 36.5224C56.5941 36.1368 56.5941 35.512 56.9797 35.1264L61.5166 30.5895C61.9019 30.2039 62.527 30.2039 62.9122 30.5895C63.2978 30.9751 63.2978 31.5998 62.9122 31.9854L58.3753 36.5224C58.1828 36.7151 57.9302 36.8115 57.6775 36.8115Z" fill="#E0EBFC"/>
<path d="M24.5705 26.3936L32.2467 34.0698L27.3617 38.9548C25.2419 41.0745 21.8052 41.0745 19.6855 38.9548C17.5657 36.835 17.5657 33.3983 19.6855 31.2786L24.5705 26.3936Z" fill="#FFC14F"/>
<path d="M37.1369 21.5034C39.2567 23.6231 39.2567 27.0599 37.1369 29.1796L32.2467 34.0699L24.5704 26.3937L29.4607 21.5034C31.5805 19.3836 35.0172 19.3836 37.1369 21.5034Z" fill="white"/>
<path d="M35.182 40.92C38.7028 40.92 41.5571 38.0658 41.5571 34.545C41.5571 31.0241 38.7028 28.1699 35.182 28.1699C31.6612 28.1699 28.8069 31.0241 28.8069 34.545C28.8069 38.0658 31.6612 40.92 35.182 40.92Z" fill="#E0EBFC"/>
<path d="M38.2723 33.4629H36.3114V31.5021C36.3114 31.3004 36.1479 31.1372 35.9466 31.1372H34.418C34.2164 31.1372 34.0532 31.3007 34.0532 31.5021V33.4629H32.0923C31.8907 33.4629 31.7275 33.6264 31.7275 33.8278V35.3563C31.7275 35.558 31.891 35.7212 32.0923 35.7212H34.0532V37.682C34.0532 37.8837 34.2167 38.0469 34.418 38.0469H35.9466C36.1483 38.0469 36.3114 37.8834 36.3114 37.682V35.7212H38.2723C38.474 35.7212 38.6371 35.5577 38.6371 35.3563V33.8278C38.6371 33.6264 38.4736 33.4629 38.2723 33.4629Z" fill="#FB5858"/>
</svg>
