<svg width="80" height="80" viewBox="0 0 80 80" fill="none" xmlns="http://www.w3.org/2000/svg">
<path d="M3.75 77.5V70.185C3.75 65.965 4.825 61.8138 6.875 58.125C8.925 54.4362 10 50.285 10 46.065V25C10 12.5737 20.0737 2.5 32.5 2.5C44.9263 2.5 55 12.5737 55 25V46.065C55 50.285 56.075 54.4362 58.125 58.125C60.175 61.8138 61.25 65.965 61.25 70.185V77.5H3.75Z" fill="#FB5858"/>
<path d="M25 61.25L11.46 64.4362C6.9425 65.4987 3.75 69.53 3.75 74.17V77.5H61.25V74.17C61.25 69.53 58.0575 65.4987 53.54 64.4362L40 61.25H25Z" fill="#C8E2FD"/>
<path d="M25 61.25L28.75 77.5H36.25L40 61.25H25Z" fill="#EAE8E5"/>
<path d="M40 52.5V61.25C40 65.3925 36.6425 68.75 32.5 68.75C28.3575 68.75 25 65.3925 25 61.25V52.5H40Z" fill="#EDC3AE"/>
<path d="M32.5 56.25C22.835 56.25 15 48.415 15 38.75V25C15 15.335 22.835 7.5 32.5 7.5C42.165 7.5 50 15.335 50 25V38.75C50 48.415 42.165 56.25 32.5 56.25Z" fill="#F4D4BE"/>
<path d="M15 38.75C12.2387 38.75 10 36.5113 10 33.75C10 30.9887 12.2387 28.75 15 28.75V38.75Z" fill="#EDC3AE"/>
<path d="M50 38.75C52.7613 38.75 55 36.5113 55 33.75C55 30.9887 52.7613 28.75 50 28.75V38.75Z" fill="#EDC3AE"/>
<path d="M25 35C26.3807 35 27.5 33.8807 27.5 32.5C27.5 31.1193 26.3807 30 25 30C23.6193 30 22.5 31.1193 22.5 32.5C22.5 33.8807 23.6193 35 25 35Z" fill="#304B68"/>
<path d="M40 35C41.3807 35 42.5 33.8807 42.5 32.5C42.5 31.1193 41.3807 30 40 30C38.6193 30 37.5 31.1193 37.5 32.5C37.5 33.8807 38.6193 35 40 35Z" fill="#304B68"/>
<path d="M32.5 46.2501C30.2338 46.2501 28.1163 45.2014 26.5375 43.2976L28.4613 41.7026C29.5575 43.0226 30.9913 43.7501 32.5 43.7501C34.0088 43.7501 35.4425 43.0226 36.5375 41.7026L38.4613 43.2976C36.8838 45.2014 34.7663 46.2501 32.5 46.2501Z" fill="#FB5858"/>
<path d="M15 26.25C15 26.25 30 26.25 37.5 15C40 25 50 26.25 50 26.25H51.25V25C51.25 14.645 42.855 6.25 32.5 6.25C22.145 6.25 13.75 14.645 13.75 25V26.25H15Z" fill="#FB5858"/>
<path d="M50.1125 63.6375L40 61.25L36.25 77.5L47.5 71.25L46.25 67.5L50.1125 63.6375ZM14.8875 63.6375L18.75 67.5L17.5 71.25L28.75 77.5L25 61.25L14.8875 63.6375Z" fill="#86BEFB"/>
<path d="M76.25 37.5C73.4887 37.5 71.25 39.7387 71.25 42.5V45H65C63.6187 45 62.5 46.1187 62.5 47.5C62.5 48.8813 63.6187 50 65 50C63.6187 50 62.5 51.1187 62.5 52.5C62.5 53.8813 63.6187 55 65 55C63.6187 55 62.5 56.1187 62.5 57.5C62.5 58.8813 63.6187 60 65 60C63.6187 60 62.5 61.1187 62.5 62.5C62.5 63.8813 63.6187 65 65 65H67.5V77.5H76.25V37.5Z" fill="#F4D4BE"/>
<path d="M67.5 65H72.5L67.5 73.75V65Z" fill="#EDC3AE"/>
</svg>
