<svg width="40" height="40" viewBox="0 0 40 40" fill="none" xmlns="http://www.w3.org/2000/svg">
<path opacity="0.1" fill-rule="evenodd" clip-rule="evenodd" d="M0 20C0 8.9543 8.9543 0 20 0C31.0457 0 40 8.9543 40 20C40 31.0457 31.0457 40 20 40C8.9543 40 0 31.0457 0 20Z" fill="white"/>
<path fill-rule="evenodd" clip-rule="evenodd" d="M20.0012 9.3335C17.1042 9.3335 16.7407 9.34616 15.6029 9.39794C14.4673 9.44994 13.6922 9.62972 13.014 9.8935C12.3124 10.1659 11.7173 10.5304 11.1244 11.1235C10.5311 11.7164 10.1666 12.3115 9.89328 13.0129C9.62883 13.6913 9.44883 14.4667 9.39772 15.6018C9.34683 16.7396 9.3335 17.1034 9.3335 20.0003C9.3335 22.8972 9.34639 23.2596 9.39794 24.3974C9.45016 25.533 9.62994 26.3081 9.8935 26.9863C10.1662 27.6879 10.5306 28.283 11.1237 28.8759C11.7164 29.4693 12.3115 29.8346 13.0126 30.107C13.6913 30.3708 14.4667 30.5506 15.602 30.6026C16.7398 30.6544 17.1031 30.667 19.9998 30.667C22.897 30.667 23.2594 30.6544 24.3972 30.6026C25.5328 30.5506 26.3088 30.3708 26.9875 30.107C27.6888 29.8346 28.283 29.4693 28.8757 28.8759C29.469 28.283 29.8335 27.6879 30.1068 26.9866C30.369 26.3081 30.5491 25.5328 30.6024 24.3977C30.6535 23.2599 30.6668 22.8972 30.6668 20.0003C30.6668 17.1034 30.6535 16.7398 30.6024 15.602C30.5491 14.4664 30.369 13.6913 30.1068 13.0131C29.8335 12.3115 29.469 11.7164 28.8757 11.1235C28.2824 10.5302 27.689 10.1657 26.9868 9.8935C26.3068 9.62972 25.5312 9.44994 24.3957 9.39794C23.2579 9.34616 22.8956 9.3335 19.9978 9.3335H20.0012ZM19.0442 11.2557C19.3282 11.2553 19.6451 11.2557 20.0011 11.2557C22.8491 11.2557 23.1867 11.2659 24.3114 11.317C25.3514 11.3646 25.9158 11.5384 26.2918 11.6844C26.7896 11.8777 27.1445 12.1088 27.5176 12.4822C27.891 12.8555 28.1221 13.2111 28.3159 13.7088C28.4619 14.0844 28.6359 14.6489 28.6832 15.6889C28.7343 16.8133 28.7454 17.1511 28.7454 19.9978C28.7454 22.8445 28.7343 23.1823 28.6832 24.3067C28.6356 25.3467 28.4619 25.9112 28.3159 26.2868C28.1225 26.7845 27.891 27.139 27.5176 27.5121C27.1443 27.8854 26.7899 28.1166 26.2918 28.3099C25.9163 28.4566 25.3514 28.6299 24.3114 28.6774C23.1869 28.7286 22.8491 28.7397 20.0011 28.7397C17.1529 28.7397 16.8153 28.7286 15.6908 28.6774C14.6508 28.6294 14.0864 28.4557 13.7102 28.3097C13.2124 28.1163 12.8568 27.8852 12.4835 27.5119C12.1101 27.1385 11.879 26.7839 11.6853 26.2859C11.5393 25.9103 11.3652 25.3459 11.3179 24.3058C11.2668 23.1814 11.2566 22.8436 11.2566 19.9951C11.2566 17.1467 11.2668 16.8107 11.3179 15.6862C11.3655 14.6462 11.5393 14.0817 11.6853 13.7057C11.8786 13.208 12.1101 12.8524 12.4835 12.4791C12.8568 12.1057 13.2124 11.8746 13.7102 11.6808C14.0862 11.5342 14.6508 11.3608 15.6908 11.313C16.6749 11.2686 17.0562 11.2553 19.0442 11.253V11.2557ZM25.695 13.0268C24.9883 13.0268 24.4149 13.5995 24.4149 14.3064C24.4149 15.0131 24.9883 15.5864 25.695 15.5864C26.4016 15.5864 26.975 15.0131 26.975 14.3064C26.975 13.5997 26.4016 13.0268 25.695 13.0268ZM20.0012 14.5224C16.976 14.5224 14.5233 16.9751 14.5233 20.0002C14.5233 23.0254 16.976 25.477 20.0012 25.477C23.0263 25.477 25.4781 23.0254 25.4781 20.0002C25.4781 16.9751 23.0263 14.5224 20.0012 14.5224ZM20.0011 16.4447C21.9647 16.4447 23.5567 18.0364 23.5567 20.0002C23.5567 21.9638 21.9647 23.5558 20.0011 23.5558C18.0373 23.5558 16.4455 21.9638 16.4455 20.0002C16.4455 18.0364 18.0373 16.4447 20.0011 16.4447Z" fill="white"/>
</svg>
