<svg width="390" height="363" viewBox="0 0 390 363" fill="none" xmlns="http://www.w3.org/2000/svg">
<path d="M148.304 26.2087C162.727 26.2087 174.435 37.9173 174.435 52.3399V113.132H234.994C249.417 113.132 261.125 124.84 261.125 139.263V223.627C261.125 238.049 249.417 249.758 234.994 249.758H174.435V310.317C174.435 324.74 162.727 336.448 148.304 336.448H114.574C142.023 353.12 174.202 362.735 208.63 362.735C308.813 362.735 389.998 281.55 389.998 181.367C389.998 81.1849 308.813 0 208.63 0C174.202 0 141.946 9.61502 114.574 26.2862H148.304V26.2087Z" fill="#D11B27"/>
<path d="M28.0386 130.888H71.2287C86.5817 130.888 99.1433 143.45 99.1433 158.803V201.993C99.1433 217.346 86.5817 229.908 71.2287 229.908H28.0386C12.6855 229.908 0.123962 217.346 0.123962 201.993V158.803C0.123962 143.45 12.6855 130.888 28.0386 130.888Z" fill="#D11B27"/>
</svg>
