<svg width="177" height="53" viewBox="0 0 177 53" fill="none" xmlns="http://www.w3.org/2000/svg">
<path d="M9.82316 29.0697H4.05006L2.94872 31.7472H0L5.54218 19.2523H8.38433L13.9443 31.7472H10.9245L9.82316 29.0697ZM8.91723 26.8742L6.94549 22.0904L4.97375 26.8742H8.91723Z" fill="#143650"/>
<path d="M21.6825 19.2523C22.7838 19.2523 23.7371 19.4367 24.5424 19.8056C25.3595 20.1745 25.9871 20.6981 26.4253 21.3764C26.8634 22.0547 27.0825 22.8579 27.0825 23.7861C27.0825 24.7024 26.8634 25.5057 26.4253 26.1959C25.9871 26.8742 25.3595 27.3978 24.5424 27.7666C23.7371 28.1236 22.7838 28.3021 21.6825 28.3021H19.1778V31.7472H16.3001V19.2523H21.6825ZM21.5226 25.946C22.3871 25.946 23.0443 25.7615 23.4943 25.3926C23.9443 25.0118 24.1693 24.4763 24.1693 23.7861C24.1693 23.084 23.9443 22.5486 23.4943 22.1797C23.0443 21.7989 22.3871 21.6085 21.5226 21.6085H19.1778V25.946H21.5226Z" fill="#143650"/>
<path d="M36.398 31.9614C35.1072 31.9614 33.9408 31.6817 32.8987 31.1224C31.8684 30.5631 31.0572 29.7956 30.4651 28.8198C29.8848 27.8321 29.5947 26.7254 29.5947 25.4997C29.5947 24.274 29.8848 23.1733 30.4651 22.1975C31.0572 21.2098 31.8684 20.4363 32.8987 19.877C33.9408 19.3177 35.1072 19.0381 36.398 19.0381C37.6889 19.0381 38.8494 19.3177 39.8797 19.877C40.9099 20.4363 41.7211 21.2098 42.3133 22.1975C42.9054 23.1733 43.2014 24.274 43.2014 25.4997C43.2014 26.7254 42.9054 27.8321 42.3133 28.8198C41.7211 29.7956 40.9099 30.5631 39.8797 31.1224C38.8494 31.6817 37.6889 31.9614 36.398 31.9614ZM36.398 29.4981C37.1323 29.4981 37.7954 29.3315 38.3875 28.9983C38.9797 28.6532 39.4415 28.1772 39.7731 27.5703C40.1165 26.9634 40.2882 26.2732 40.2882 25.4997C40.2882 24.7262 40.1165 24.036 39.7731 23.4291C39.4415 22.8222 38.9797 22.3522 38.3875 22.019C37.7954 21.6739 37.1323 21.5014 36.398 21.5014C35.6638 21.5014 35.0007 21.6739 34.4085 22.019C33.8164 22.3522 33.3487 22.8222 33.0052 23.4291C32.6737 24.036 32.5079 24.7262 32.5079 25.4997C32.5079 26.2732 32.6737 26.9634 33.0052 27.5703C33.3487 28.1772 33.8164 28.6532 34.4085 28.9983C35.0007 29.3315 35.6638 29.4981 36.398 29.4981Z" fill="#143650"/>
<path d="M48.8321 21.6085H44.8531V19.2523H55.6888V21.6085H51.7098V31.7472H48.8321V21.6085Z" fill="#143650"/>
<path d="M69.7071 19.2523V31.7472H66.8294V26.6243H61.1806V31.7472H58.303V19.2523H61.1806V24.1788H66.8294V19.2523H69.7071Z" fill="#143650"/>
<path d="M83.3426 29.4267V31.7472H73.7148V19.2523H83.1116V21.5728H76.5747V24.2859H82.3478V26.535H76.5747V29.4267H83.3426Z" fill="#143650"/>
<path d="M92.6141 31.9614C91.347 31.9614 90.1983 31.6877 89.168 31.1403C88.1495 30.581 87.3443 29.8134 86.7522 28.8376C86.1719 27.8499 85.8817 26.7373 85.8817 25.4997C85.8817 24.2621 86.1719 23.1554 86.7522 22.1797C87.3443 21.192 88.1495 20.4244 89.168 19.877C90.1983 19.3177 91.3529 19.0381 92.6318 19.0381C93.7095 19.0381 94.6805 19.2285 95.545 19.6093C96.4214 19.9901 97.1556 20.5375 97.7477 21.2515L95.9003 22.965C95.0595 21.9893 94.0174 21.5014 92.7739 21.5014C92.0042 21.5014 91.3174 21.6739 90.7134 22.019C90.1094 22.3522 89.6357 22.8222 89.2923 23.4291C88.9607 24.036 88.7949 24.7262 88.7949 25.4997C88.7949 26.2732 88.9607 26.9634 89.2923 27.5703C89.6357 28.1772 90.1094 28.6532 90.7134 28.9983C91.3174 29.3315 92.0042 29.4981 92.7739 29.4981C94.0174 29.4981 95.0595 29.0042 95.9003 28.0165L97.7477 29.7301C97.1556 30.456 96.4214 31.0094 95.545 31.3902C94.6687 31.771 93.6917 31.9614 92.6141 31.9614Z" fill="#143650"/>
<path d="M108.703 29.0697H102.93L101.828 31.7472H98.8797L104.422 19.2523H107.264L112.824 31.7472H109.804L108.703 29.0697ZM107.797 26.8742L105.825 22.0904L103.853 26.8742H107.797Z" fill="#143650"/>
<path d="M142.388 3.86276C144.454 3.86276 146.131 5.54764 146.131 7.62306V16.371H154.803C156.868 16.371 158.545 18.0559 158.545 20.1313V32.2714C158.545 34.3468 156.868 36.0317 154.803 36.0317H146.131V44.7462C146.131 46.8216 144.454 48.5065 142.388 48.5065H137.558C141.489 50.9055 146.097 52.2891 151.027 52.2891C165.374 52.2891 177 40.6065 177 26.1902C177 11.7739 165.374 0.0913086 151.027 0.0913086C146.097 0.0913086 141.478 1.47492 137.558 3.87392H142.388V3.86276Z" fill="#E93235"/>
<path d="M125.166 18.9263H131.351C133.55 18.9263 135.348 20.7339 135.348 22.9432V29.1583C135.348 31.3676 133.55 33.1752 131.351 33.1752H125.166C122.967 33.1752 121.168 31.3676 121.168 29.1583V22.9432C121.168 20.7339 122.967 18.9263 125.166 18.9263Z" fill="#E93235"/>
</svg>
