<svg width="16" height="16" viewBox="0 0 16 16" fill="none" xmlns="http://www.w3.org/2000/svg">
<mask id="path-1-inside-1_2407_641" fill="white">
<path d="M11.2551 0.5H4.75262C2.21012 0.5 0.500122 2.285 0.500122 4.94V11.0683C0.500122 13.715 2.21012 15.5 4.75262 15.5H11.2551C13.7976 15.5 15.5001 13.715 15.5001 11.0683V4.94C15.5001 2.285 13.7976 0.5 11.2551 0.5Z"/>
</mask>
<path d="M11.2551 -0.5H4.75262V1.5H11.2551V-0.5ZM4.75262 -0.5C3.23859 -0.5 1.90443 0.0370065 0.950765 1.03266C0.000681758 2.02457 -0.499878 3.39573 -0.499878 4.94H1.50012C1.50012 3.82927 1.85456 2.98043 2.3951 2.41609C2.93206 1.85549 3.72415 1.5 4.75262 1.5V-0.5ZM-0.499878 4.94V11.0683H1.50012V4.94H-0.499878ZM-0.499878 11.0683C-0.499878 12.6092 0.00117683 13.9783 0.951224 14.9689C1.90476 15.963 3.23864 16.5 4.75262 16.5V14.5C3.7241 14.5 2.93173 14.1445 2.39465 13.5845C1.85407 13.0208 1.50012 12.1741 1.50012 11.0683H-0.499878ZM4.75262 16.5H11.2551V14.5H4.75262V16.5ZM11.2551 16.5C12.7693 16.5 14.1018 15.9629 15.0536 14.9679C16.0017 13.977 16.5001 12.608 16.5001 11.0683H14.5001C14.5001 12.1753 14.1473 13.0222 13.6085 13.5854C13.0734 14.1446 12.2834 14.5 11.2551 14.5V16.5ZM16.5001 11.0683V4.94H14.5001V11.0683H16.5001ZM16.5001 4.94C16.5001 3.39695 16.0022 2.02591 15.0541 1.03357C14.1021 0.0371739 12.7693 -0.5 11.2551 -0.5V1.5C12.2834 1.5 13.0731 1.85533 13.608 2.41518C14.1468 2.97909 14.5001 3.82805 14.5001 4.94H16.5001Z" fill="#738DA3" mask="url(#path-1-inside-1_2407_641)"/>
</svg>
