<svg width="41" height="40" viewBox="0 0 41 40" fill="none" xmlns="http://www.w3.org/2000/svg">
<path opacity="0.1" fill-rule="evenodd" clip-rule="evenodd" d="M0.75 20C0.75 8.95431 9.70431 0 20.75 0C31.7957 0 40.75 8.95431 40.75 20C40.75 31.0457 31.7957 40 20.75 40C9.70431 40 0.75 31.0457 0.75 20Z" fill="white"/>
<path d="M24.0806 13.3208H25.9065V10.1408C25.5915 10.0975 24.5081 10 23.2465 10C20.614 10 18.8106 11.6558 18.8106 14.6992V17.5H15.9056V21.055H18.8106V30H22.3723V21.0558H25.1598L25.6023 17.5008H22.3715V15.0517C22.3723 14.0242 22.649 13.3208 24.0806 13.3208Z" fill="white"/>
</svg>
